<svg xmlns="http://www.w3.org/2000/svg" xmlns:xlink="http://www.w3.org/1999/xlink" width="500" zoomAndPan="magnify" viewBox="0 0 375 374.999991" height="500" preserveAspectRatio="xMidYMid meet" version="1.0"><defs><clipPath id="14901b2313"><path d="M 46.703125 24.8125 L 327.953125 24.8125 L 327.953125 350.3125 L 46.703125 350.3125 Z M 46.703125 24.8125 " clip-rule="nonzero"/></clipPath></defs><g clip-path="url(#14901b2313)"><path fill="#231f20" d="M 46.703125 106.242188 L 46.703125 268.886719 L 187.332031 350.207031 L 327.957031 268.886719 L 327.957031 106.242188 L 187.332031 24.917969 Z M 46.703125 106.242188 " fill-opacity="1" fill-rule="nonzero"/></g><path fill="#58595b" d="M 209.074219 98.210938 L 235.054688 98.210938 L 235.054688 157.765625 L 209.074219 157.765625 Z M 209.074219 98.210938 " fill-opacity="1" fill-rule="nonzero"/><path fill="#ffffff" d="M 213.820312 209.214844 L 258.113281 232.695312 L 258.113281 156.265625 Z M 213.820312 209.214844 " fill-opacity="1" fill-rule="nonzero"/><path fill="#ffffff" d="M 113.917969 232.695312 L 258.113281 156.265625 L 186.015625 115.621094 L 113.917969 156.265625 Z M 113.917969 232.695312 " fill-opacity="1" fill-rule="nonzero"/><path fill="#231f20" d="M 203.371094 156.265625 C 203.371094 156.832031 203.34375 157.402344 203.289062 157.96875 C 203.230469 158.535156 203.148438 159.097656 203.039062 159.65625 C 202.925781 160.214844 202.789062 160.765625 202.625 161.308594 C 202.457031 161.855469 202.265625 162.390625 202.050781 162.917969 C 201.832031 163.441406 201.589844 163.957031 201.320312 164.457031 C 201.054688 164.960938 200.761719 165.449219 200.445312 165.921875 C 200.128906 166.394531 199.792969 166.851562 199.429688 167.292969 C 199.070312 167.730469 198.6875 168.152344 198.289062 168.554688 C 197.886719 168.957031 197.464844 169.339844 197.023438 169.703125 C 196.585938 170.0625 196.128906 170.402344 195.65625 170.71875 C 195.183594 171.035156 194.699219 171.328125 194.195312 171.59375 C 193.695312 171.863281 193.183594 172.105469 192.65625 172.324219 C 192.132812 172.542969 191.597656 172.734375 191.054688 172.898438 C 190.507812 173.0625 189.957031 173.203125 189.402344 173.3125 C 188.84375 173.425781 188.28125 173.507812 187.714844 173.5625 C 187.152344 173.621094 186.582031 173.648438 186.015625 173.648438 C 185.445312 173.648438 184.878906 173.621094 184.3125 173.5625 C 183.75 173.507812 183.1875 173.425781 182.628906 173.3125 C 182.070312 173.203125 181.519531 173.0625 180.976562 172.898438 C 180.433594 172.734375 179.898438 172.542969 179.375 172.324219 C 178.847656 172.105469 178.335938 171.863281 177.832031 171.59375 C 177.332031 171.328125 176.84375 171.035156 176.371094 170.71875 C 175.898438 170.402344 175.445312 170.0625 175.003906 169.703125 C 174.566406 169.339844 174.144531 168.957031 173.742188 168.554688 C 173.339844 168.152344 172.960938 167.730469 172.597656 167.292969 C 172.238281 166.851562 171.898438 166.394531 171.585938 165.921875 C 171.269531 165.449219 170.976562 164.960938 170.707031 164.457031 C 170.441406 163.957031 170.199219 163.441406 169.980469 162.917969 C 169.761719 162.390625 169.570312 161.855469 169.40625 161.308594 C 169.242188 160.765625 169.105469 160.214844 168.992188 159.65625 C 168.882812 159.097656 168.796875 158.535156 168.742188 157.96875 C 168.6875 157.402344 168.660156 156.832031 168.660156 156.265625 C 168.660156 155.695312 168.6875 155.125 168.742188 154.558594 C 168.796875 153.992188 168.882812 153.429688 168.992188 152.871094 C 169.105469 152.3125 169.242188 151.761719 169.40625 151.21875 C 169.570312 150.671875 169.761719 150.136719 169.980469 149.613281 C 170.199219 149.085938 170.441406 148.570312 170.707031 148.070312 C 170.976562 147.566406 171.269531 147.078125 171.585938 146.605469 C 171.898438 146.132812 172.238281 145.675781 172.597656 145.234375 C 172.960938 144.796875 173.339844 144.375 173.742188 143.972656 C 174.144531 143.570312 174.566406 143.1875 175.003906 142.828125 C 175.445312 142.464844 175.898438 142.125 176.371094 141.808594 C 176.84375 141.492188 177.332031 141.203125 177.832031 140.933594 C 178.335938 140.664062 178.847656 140.421875 179.375 140.203125 C 179.898438 139.984375 180.433594 139.792969 180.976562 139.628906 C 181.519531 139.464844 182.070312 139.324219 182.628906 139.214844 C 183.1875 139.101562 183.75 139.019531 184.3125 138.964844 C 184.878906 138.910156 185.445312 138.878906 186.015625 138.878906 C 186.582031 138.878906 187.152344 138.910156 187.714844 138.964844 C 188.28125 139.019531 188.84375 139.101562 189.402344 139.214844 C 189.957031 139.324219 190.507812 139.464844 191.054688 139.628906 C 191.597656 139.792969 192.132812 139.984375 192.65625 140.203125 C 193.183594 140.421875 193.695312 140.664062 194.195312 140.933594 C 194.699219 141.203125 195.183594 141.492188 195.65625 141.808594 C 196.128906 142.125 196.585938 142.464844 197.023438 142.828125 C 197.464844 143.1875 197.886719 143.570312 198.289062 143.972656 C 198.6875 144.375 199.070312 144.796875 199.429688 145.234375 C 199.792969 145.675781 200.128906 146.132812 200.445312 146.605469 C 200.761719 147.078125 201.054688 147.566406 201.320312 148.070312 C 201.589844 148.570312 201.832031 149.085938 202.050781 149.613281 C 202.265625 150.136719 202.457031 150.671875 202.625 151.21875 C 202.789062 151.761719 202.925781 152.3125 203.039062 152.871094 C 203.148438 153.429688 203.230469 153.992188 203.289062 154.558594 C 203.34375 155.125 203.371094 155.695312 203.371094 156.265625 Z M 203.371094 156.265625 " fill-opacity="1" fill-rule="nonzero"/><path fill="#58595b" d="M 154.355469 259.011719 C 154.175781 258.027344 153.902344 257.074219 153.535156 256.144531 C 153.167969 255.21875 152.710938 254.335938 152.171875 253.496094 C 151.628906 252.65625 151.011719 251.878906 150.320312 251.164062 C 149.625 250.445312 148.871094 249.804688 148.050781 249.234375 C 147.230469 248.667969 146.363281 248.183594 145.449219 247.785156 C 144.535156 247.390625 143.589844 247.085938 142.617188 246.871094 C 141.644531 246.660156 140.660156 246.546875 139.660156 246.527344 C 138.664062 246.511719 137.675781 246.589844 136.695312 246.765625 C 136.128906 246.894531 135.527344 247 134.96875 247.1875 L 137.109375 230.363281 L 169.328125 213.332031 L 169.847656 213.074219 C 175.082031 210 171.972656 202.011719 171.941406 201.972656 L 138.476562 219.628906 L 143.261719 182.039062 C 143.261719 182.039062 134.6875 181.929688 133.648438 187.894531 L 133.585938 188.472656 L 128.925781 224.644531 L 113.941406 232.558594 C 113.890625 231.90625 113.8125 231.359375 113.707031 230.761719 C 113.53125 229.78125 113.261719 228.824219 112.894531 227.894531 C 112.53125 226.96875 112.078125 226.082031 111.539062 225.246094 C 111 224.40625 110.386719 223.625 109.695312 222.910156 C 109.003906 222.191406 108.246094 221.546875 107.429688 220.976562 C 106.609375 220.410156 105.746094 219.925781 104.832031 219.527344 C 103.917969 219.128906 102.972656 218.824219 102 218.613281 C 101.027344 218.398438 100.042969 218.285156 99.046875 218.265625 C 98.050781 218.25 97.0625 218.328125 96.082031 218.507812 C 95.101562 218.683594 94.148438 218.957031 93.21875 219.320312 C 92.292969 219.6875 91.410156 220.140625 90.570312 220.679688 C 89.734375 221.21875 88.957031 221.835938 88.238281 222.527344 C 87.523438 223.21875 86.878906 223.976562 86.3125 224.796875 C 85.746094 225.617188 85.261719 226.484375 84.863281 227.398438 C 84.464844 228.3125 84.160156 229.257812 83.949219 230.234375 C 83.738281 231.207031 83.625 232.195312 83.605469 233.191406 C 83.589844 234.191406 83.667969 235.179688 83.84375 236.160156 C 84.023438 237.144531 84.292969 238.097656 84.65625 239.027344 C 85.023438 239.957031 85.472656 240.839844 86.011719 241.679688 C 86.550781 242.519531 87.167969 243.296875 87.859375 244.015625 C 88.550781 244.734375 89.304688 245.378906 90.125 245.945312 C 90.941406 246.515625 91.808594 247 92.722656 247.398438 C 93.636719 247.796875 94.578125 248.101562 95.550781 248.3125 C 96.527344 248.523438 97.511719 248.640625 98.507812 248.65625 C 99.503906 248.675781 100.492188 248.597656 101.472656 248.417969 C 102.542969 248.238281 103.582031 247.9375 104.582031 247.515625 C 105.472656 247.140625 106.328125 246.695312 107.140625 246.175781 L 127.542969 235.394531 L 124.589844 258.347656 C 124.167969 260.355469 124.128906 262.371094 124.464844 264.398438 C 124.539062 264.898438 124.640625 265.394531 124.765625 265.886719 C 124.886719 266.378906 125.039062 266.863281 125.210938 267.34375 C 125.382812 267.820312 125.578125 268.285156 125.800781 268.742188 C 126.019531 269.199219 126.261719 269.644531 126.527344 270.078125 C 126.789062 270.511719 127.074219 270.929688 127.382812 271.335938 C 127.6875 271.742188 128.011719 272.128906 128.359375 272.5 C 128.703125 272.871094 129.066406 273.226562 129.445312 273.5625 C 129.824219 273.898438 130.222656 274.214844 130.632812 274.507812 C 131.046875 274.804688 131.472656 275.078125 131.910156 275.332031 C 132.347656 275.585938 132.800781 275.816406 133.261719 276.023438 C 133.726562 276.234375 134.195312 276.417969 134.675781 276.578125 C 135.15625 276.738281 135.644531 276.875 136.140625 276.988281 C 136.632812 277.097656 137.132812 277.183594 137.636719 277.246094 C 138.140625 277.308594 138.644531 277.34375 139.152344 277.355469 C 139.65625 277.367188 140.164062 277.351562 140.667969 277.3125 C 141.171875 277.273438 141.675781 277.210938 142.175781 277.121094 C 142.671875 277.03125 143.167969 276.914062 143.652344 276.773438 C 144.140625 276.636719 144.621094 276.472656 145.089844 276.285156 C 145.5625 276.097656 146.023438 275.886719 146.472656 275.652344 C 146.921875 275.421875 147.359375 275.164062 147.785156 274.886719 C 148.207031 274.609375 148.617188 274.3125 149.011719 273.992188 C 149.40625 273.675781 149.785156 273.335938 150.144531 272.980469 C 150.507812 272.625 150.847656 272.25 151.171875 271.859375 C 151.496094 271.46875 151.800781 271.0625 152.082031 270.640625 C 152.367188 270.222656 152.628906 269.785156 152.867188 269.339844 C 153.105469 268.890625 153.324219 268.433594 153.515625 267.964844 C 153.710938 267.496094 153.878906 267.019531 154.027344 266.53125 C 154.171875 266.046875 154.292969 265.554688 154.390625 265.054688 C 154.488281 264.558594 154.558594 264.054688 154.605469 263.550781 C 154.652344 263.042969 154.675781 262.539062 154.671875 262.03125 C 154.667969 261.523438 154.636719 261.015625 154.582031 260.511719 C 154.527344 260.007812 154.449219 259.507812 154.34375 259.011719 Z M 100.296875 241.898438 C 99.742188 242 99.183594 242.046875 98.621094 242.035156 C 98.058594 242.027344 97.503906 241.960938 96.953125 241.84375 C 96.402344 241.722656 95.867188 241.550781 95.351562 241.328125 C 94.835938 241.101562 94.347656 240.828125 93.886719 240.507812 C 93.421875 240.1875 92.996094 239.824219 92.605469 239.417969 C 92.214844 239.011719 91.867188 238.574219 91.5625 238.097656 C 91.257812 237.625 91.003906 237.125 90.796875 236.601562 C 90.589844 236.078125 90.4375 235.535156 90.335938 234.980469 C 90.238281 234.425781 90.191406 233.867188 90.203125 233.304688 C 90.210938 232.742188 90.277344 232.183594 90.394531 231.632812 C 90.515625 231.082031 90.6875 230.546875 90.910156 230.03125 C 91.136719 229.515625 91.410156 229.023438 91.730469 228.5625 C 92.050781 228.097656 92.414062 227.671875 92.820312 227.28125 C 93.222656 226.890625 93.664062 226.542969 94.136719 226.238281 C 94.609375 225.933594 95.109375 225.675781 95.632812 225.46875 C 96.15625 225.265625 96.695312 225.109375 97.25 225.011719 C 97.800781 224.910156 98.359375 224.867188 98.921875 224.875 C 99.484375 224.886719 100.042969 224.953125 100.59375 225.070312 C 101.140625 225.191406 101.675781 225.363281 102.191406 225.589844 C 102.707031 225.816406 103.195312 226.089844 103.65625 226.410156 C 104.121094 226.730469 104.546875 227.09375 104.9375 227.5 C 105.328125 227.90625 105.675781 228.347656 105.976562 228.820312 C 106.28125 229.296875 106.535156 229.796875 106.742188 230.320312 C 106.949219 230.84375 107.101562 231.382812 107.199219 231.941406 C 107.300781 232.492188 107.34375 233.050781 107.335938 233.613281 C 107.324219 234.179688 107.261719 234.734375 107.140625 235.285156 C 107.023438 235.835938 106.851562 236.367188 106.625 236.886719 C 106.402344 237.402344 106.128906 237.890625 105.808594 238.351562 C 105.488281 238.816406 105.125 239.242188 104.722656 239.632812 C 104.316406 240.023438 103.878906 240.371094 103.40625 240.675781 C 102.933594 240.980469 102.433594 241.234375 101.910156 241.441406 C 101.386719 241.648438 100.847656 241.800781 100.296875 241.898438 Z M 132.933594 229.199219 C 132.640625 229.140625 132.371094 229.023438 132.125 228.855469 C 131.875 228.683594 131.667969 228.476562 131.503906 228.222656 C 131.339844 227.972656 131.230469 227.699219 131.175781 227.402344 C 131.121094 227.109375 131.121094 226.816406 131.183594 226.519531 C 131.246094 226.226562 131.359375 225.957031 131.527344 225.707031 C 131.695312 225.460938 131.90625 225.253906 132.15625 225.089844 C 132.40625 224.921875 132.679688 224.8125 132.976562 224.757812 C 133.269531 224.699219 133.5625 224.703125 133.855469 224.761719 C 134.152344 224.820312 134.421875 224.929688 134.671875 225.097656 C 134.917969 225.261719 135.125 225.472656 135.289062 225.722656 C 135.453125 225.972656 135.5625 226.242188 135.617188 226.539062 C 135.671875 226.832031 135.667969 227.125 135.605469 227.417969 C 135.542969 227.714844 135.429688 227.984375 135.265625 228.234375 C 135.097656 228.484375 134.886719 228.695312 134.636719 228.863281 C 134.386719 229.027344 134.113281 229.140625 133.820312 229.199219 C 133.523438 229.257812 133.230469 229.257812 132.933594 229.199219 Z M 140.949219 270.1875 C 139.832031 270.386719 138.71875 270.363281 137.613281 270.125 C 136.503906 269.886719 135.480469 269.445312 134.546875 268.800781 C 133.609375 268.152344 132.835938 267.351562 132.222656 266.390625 C 131.609375 265.433594 131.203125 264.394531 131.003906 263.269531 C 130.902344 262.714844 130.851562 262.15625 130.859375 261.589844 C 130.867188 261.027344 130.929688 260.46875 131.046875 259.914062 C 131.164062 259.363281 131.335938 258.824219 131.558594 258.308594 C 131.78125 257.789062 132.054688 257.296875 132.375 256.832031 C 132.695312 256.367188 133.058594 255.9375 133.464844 255.546875 C 133.867188 255.152344 134.308594 254.804688 134.78125 254.496094 C 135.257812 254.191406 135.757812 253.9375 136.28125 253.730469 C 136.808594 253.523438 137.347656 253.371094 137.902344 253.273438 C 139.023438 253.066406 140.136719 253.085938 141.246094 253.324219 C 142.359375 253.566406 143.378906 254.007812 144.316406 254.65625 C 145.242188 255.3125 146.011719 256.117188 146.625 257.074219 C 147.234375 258.03125 147.644531 259.070312 147.847656 260.1875 C 147.945312 260.742188 147.988281 261.300781 147.976562 261.863281 C 147.964844 262.429688 147.902344 262.984375 147.78125 263.535156 C 147.660156 264.085938 147.488281 264.621094 147.265625 265.136719 C 147.039062 265.652344 146.769531 266.144531 146.449219 266.605469 C 146.128906 267.070312 145.769531 267.496094 145.363281 267.890625 C 144.960938 268.285156 144.523438 268.632812 144.050781 268.941406 C 143.582031 269.246094 143.085938 269.503906 142.5625 269.714844 C 142.039062 269.925781 141.503906 270.082031 140.949219 270.1875 Z M 140.949219 270.1875 " fill-opacity="1" fill-rule="nonzero"/><path fill="#ffffff" d="M 187.332031 336.546875 L 58.515625 262.054688 L 58.515625 113.070312 L 187.332031 38.582031 L 316.144531 113.070312 L 316.144531 262.054688 Z M 60.804688 260.734375 L 187.332031 333.898438 L 313.855469 260.734375 L 313.855469 114.390625 L 187.332031 41.226562 L 60.804688 114.390625 Z M 60.804688 260.734375 " fill-opacity="1" fill-rule="nonzero"/><path fill="#ffffff" d="M 238.289062 178.546875 L 241.945312 174.203125 L 243.675781 175.664062 L 240.023438 180.007812 Z M 238.289062 178.546875 " fill-opacity="1" fill-rule="nonzero"/><path fill="#ffffff" d="M 181.96875 250.707031 L 180.222656 249.230469 L 185.957031 242.421875 L 187.699219 243.898438 Z M 190.484375 240.578125 L 188.742188 239.109375 L 194.472656 232.296875 L 196.21875 233.773438 Z M 199.003906 230.457031 L 197.257812 228.984375 L 202.992188 222.175781 L 204.742188 223.652344 Z M 207.527344 220.332031 L 205.78125 218.863281 L 211.515625 212.050781 L 213.257812 213.527344 Z M 216.050781 210.210938 L 214.28125 208.738281 L 220.011719 201.929688 L 221.757812 203.398438 Z M 224.566406 200.085938 L 222.816406 198.625 L 228.574219 191.804688 L 230.3125 193.277344 Z M 233.121094 189.964844 L 231.371094 188.488281 L 237.070312 181.707031 L 238.816406 183.179688 Z M 233.121094 189.964844 " fill-opacity="1" fill-rule="nonzero"/><path fill="#ffffff" d="M 175.363281 257.921875 C 175.140625 257.921875 174.9375 257.863281 174.75 257.742188 C 174.566406 257.621094 174.425781 257.460938 174.332031 257.261719 C 174.238281 257.058594 174.207031 256.847656 174.234375 256.628906 C 174.265625 256.410156 174.351562 256.214844 174.492188 256.042969 L 177.433594 252.542969 L 179.183594 254.019531 L 177.832031 255.621094 L 179.921875 255.621094 L 179.921875 257.910156 L 175.375 257.910156 Z M 175.363281 257.921875 " fill-opacity="1" fill-rule="nonzero"/><path fill="#ffffff" d="M 184.449219 257.871094 L 184.449219 255.582031 L 193.542969 255.535156 L 193.542969 257.824219 Z M 198.042969 257.824219 L 198.042969 255.542969 L 207.136719 255.492188 L 207.136719 257.773438 Z M 211.640625 257.753906 L 211.640625 255.464844 L 220.734375 255.414062 L 220.734375 257.703125 Z M 225.226562 257.675781 L 225.226562 255.386719 L 234.320312 255.339844 L 234.320312 257.625 Z M 238.816406 257.597656 L 238.816406 255.316406 L 247.910156 255.261719 L 247.910156 257.546875 Z M 238.816406 257.597656 " fill-opacity="1" fill-rule="nonzero"/><path fill="#ffffff" d="M 252.40625 257.488281 L 252.40625 255.203125 L 255.832031 255.203125 L 255.832031 251.769531 L 258.113281 251.769531 L 258.113281 256.324219 C 258.113281 256.472656 258.085938 256.617188 258.027344 256.757812 C 257.96875 256.898438 257.890625 257.019531 257.78125 257.125 C 257.675781 257.234375 257.554688 257.316406 257.417969 257.375 C 257.277344 257.429688 257.132812 257.460938 256.984375 257.460938 Z M 252.40625 257.488281 " fill-opacity="1" fill-rule="nonzero"/><path fill="#ffffff" d="M 255.820312 240.261719 L 258.101562 240.261719 L 258.101562 248.289062 L 255.820312 248.289062 Z M 255.820312 240.261719 " fill-opacity="1" fill-rule="nonzero"/><path fill="#ffffff" d="M 255.820312 231.085938 L 258.101562 231.085938 L 258.101562 236.804688 L 255.820312 236.804688 Z M 255.820312 231.085938 " fill-opacity="1" fill-rule="nonzero"/></svg>