<svg xmlns="http://www.w3.org/2000/svg" xmlns:xlink="http://www.w3.org/1999/xlink" width="500" zoomAndPan="magnify" viewBox="0 0 375 374.999991" height="500" preserveAspectRatio="xMidYMid meet" version="1.0"><defs><clipPath id="e4f7c4612e"><path d="M 93.414062 78.785156 L 281.664062 78.785156 L 281.664062 296.285156 L 93.414062 296.285156 Z M 93.414062 78.785156 " clip-rule="nonzero"/></clipPath></defs><g clip-path="url(#e4f7c4612e)"><path fill="#231f20" d="M 93.414062 133.195312 L 93.414062 241.878906 L 187.542969 296.21875 L 281.667969 241.878906 L 281.667969 133.195312 L 187.542969 78.851562 Z M 93.414062 133.195312 " fill-opacity="1" fill-rule="nonzero"/></g><path fill="#58595b" d="M 202.09375 127.832031 L 219.484375 127.832031 L 219.484375 167.625 L 202.09375 167.625 Z M 202.09375 127.832031 " fill-opacity="1" fill-rule="nonzero"/><path fill="#ffffff" d="M 205.273438 202.003906 L 234.917969 217.695312 L 234.917969 166.621094 Z M 205.273438 202.003906 " fill-opacity="1" fill-rule="nonzero"/><path fill="#ffffff" d="M 138.402344 217.695312 L 234.917969 166.621094 L 186.660156 139.464844 L 138.402344 166.621094 Z M 138.402344 217.695312 " fill-opacity="1" fill-rule="nonzero"/><path fill="#231f20" d="M 198.277344 166.621094 C 198.277344 167.382812 198.203125 168.140625 198.054688 168.886719 C 197.90625 169.636719 197.683594 170.363281 197.390625 171.066406 C 197.101562 171.769531 196.742188 172.441406 196.320312 173.074219 C 195.894531 173.710938 195.414062 174.296875 194.875 174.835938 C 194.335938 175.375 193.75 175.855469 193.113281 176.28125 C 192.480469 176.703125 191.808594 177.0625 191.105469 177.351562 C 190.402344 177.644531 189.675781 177.867188 188.925781 178.015625 C 188.179688 178.164062 187.421875 178.238281 186.660156 178.238281 C 185.898438 178.238281 185.140625 178.164062 184.394531 178.015625 C 183.644531 177.867188 182.917969 177.644531 182.214844 177.351562 C 181.507812 177.0625 180.839844 176.703125 180.207031 176.28125 C 179.570312 175.855469 178.984375 175.375 178.445312 174.835938 C 177.90625 174.296875 177.425781 173.710938 177 173.074219 C 176.578125 172.441406 176.21875 171.769531 175.925781 171.066406 C 175.636719 170.363281 175.414062 169.636719 175.265625 168.886719 C 175.117188 168.140625 175.042969 167.382812 175.042969 166.621094 C 175.042969 165.859375 175.117188 165.101562 175.265625 164.355469 C 175.414062 163.605469 175.636719 162.878906 175.925781 162.175781 C 176.21875 161.472656 176.578125 160.800781 177 160.167969 C 177.425781 159.535156 177.90625 158.945312 178.445312 158.40625 C 178.984375 157.867188 179.570312 157.386719 180.207031 156.964844 C 180.839844 156.539062 181.507812 156.179688 182.214844 155.890625 C 182.917969 155.597656 183.644531 155.378906 184.394531 155.226562 C 185.140625 155.078125 185.898438 155.003906 186.660156 155.003906 C 187.421875 155.003906 188.179688 155.078125 188.925781 155.226562 C 189.675781 155.378906 190.402344 155.597656 191.105469 155.890625 C 191.808594 156.179688 192.480469 156.539062 193.113281 156.964844 C 193.75 157.386719 194.335938 157.867188 194.875 158.40625 C 195.414062 158.945312 195.894531 159.535156 196.320312 160.167969 C 196.742188 160.800781 197.101562 161.472656 197.390625 162.175781 C 197.683594 162.878906 197.90625 163.605469 198.054688 164.355469 C 198.203125 165.101562 198.277344 165.859375 198.277344 166.621094 Z M 198.277344 166.621094 " fill-opacity="1" fill-rule="nonzero"/><path fill="#58595b" d="M 165.46875 235.277344 C 165.347656 234.621094 165.164062 233.984375 164.917969 233.363281 C 164.671875 232.746094 164.371094 232.152344 164.007812 231.59375 C 163.644531 231.035156 163.230469 230.515625 162.769531 230.035156 C 162.304688 229.554688 161.796875 229.125 161.25 228.746094 C 160.699219 228.367188 160.121094 228.042969 159.507812 227.777344 C 158.898438 227.511719 158.265625 227.308594 157.613281 227.167969 C 156.960938 227.027344 156.300781 226.949219 155.632812 226.9375 C 154.96875 226.925781 154.304688 226.980469 153.648438 227.097656 C 153.269531 227.183594 152.867188 227.253906 152.492188 227.378906 L 153.925781 216.136719 L 175.492188 204.757812 L 175.839844 204.582031 C 179.34375 202.53125 177.261719 197.191406 177.238281 197.164062 L 154.839844 208.964844 L 158.042969 183.84375 C 158.042969 183.84375 152.304688 183.769531 151.609375 187.757812 L 151.566406 188.144531 L 148.449219 212.316406 L 138.417969 217.601562 C 138.382812 217.167969 138.332031 216.800781 138.261719 216.402344 C 138.144531 215.746094 137.964844 215.109375 137.71875 214.488281 C 137.472656 213.867188 137.171875 213.277344 136.8125 212.714844 C 136.449219 212.15625 136.039062 211.632812 135.574219 211.15625 C 135.113281 210.675781 134.605469 210.246094 134.058594 209.863281 C 133.511719 209.484375 132.933594 209.160156 132.320312 208.894531 C 131.710938 208.628906 131.078125 208.425781 130.425781 208.285156 C 129.773438 208.140625 129.117188 208.066406 128.449219 208.054688 C 127.78125 208.042969 127.121094 208.09375 126.464844 208.214844 C 125.808594 208.332031 125.167969 208.511719 124.550781 208.757812 C 123.929688 209 123.335938 209.304688 122.777344 209.664062 C 122.214844 210.023438 121.695312 210.4375 121.214844 210.898438 C 120.734375 211.363281 120.304688 211.867188 119.925781 212.417969 C 119.546875 212.964844 119.222656 213.542969 118.957031 214.15625 C 118.691406 214.765625 118.484375 215.398438 118.34375 216.050781 C 118.203125 216.699219 118.125 217.359375 118.113281 218.027344 C 118.101562 218.691406 118.15625 219.355469 118.273438 220.011719 C 118.390625 220.667969 118.574219 221.304688 118.816406 221.925781 C 119.0625 222.546875 119.363281 223.136719 119.726562 223.699219 C 120.085938 224.257812 120.496094 224.78125 120.960938 225.257812 C 121.421875 225.738281 121.929688 226.167969 122.476562 226.550781 C 123.023438 226.929688 123.605469 227.253906 124.214844 227.519531 C 124.828125 227.785156 125.457031 227.988281 126.109375 228.128906 C 126.761719 228.273438 127.421875 228.347656 128.085938 228.359375 C 128.753906 228.371094 129.414062 228.320312 130.070312 228.199219 C 130.789062 228.082031 131.484375 227.878906 132.15625 227.597656 C 132.75 227.347656 133.320312 227.046875 133.867188 226.703125 L 147.523438 219.496094 L 145.546875 234.835938 C 145.265625 236.175781 145.238281 237.523438 145.460938 238.878906 C 145.5625 239.550781 145.730469 240.207031 145.960938 240.847656 C 146.195312 241.484375 146.488281 242.09375 146.839844 242.675781 C 147.195312 243.253906 147.605469 243.796875 148.066406 244.292969 C 148.53125 244.792969 149.039062 245.238281 149.589844 245.636719 C 150.144531 246.03125 150.730469 246.371094 151.351562 246.648438 C 151.972656 246.925781 152.613281 247.140625 153.277344 247.289062 C 153.941406 247.441406 154.613281 247.523438 155.292969 247.539062 C 155.972656 247.550781 156.648438 247.5 157.316406 247.378906 C 157.984375 247.257812 158.636719 247.074219 159.269531 246.820312 C 159.902344 246.570312 160.5 246.257812 161.070312 245.886719 C 161.640625 245.515625 162.167969 245.089844 162.652344 244.613281 C 163.136719 244.136719 163.566406 243.617188 163.949219 243.050781 C 164.328125 242.488281 164.648438 241.890625 164.90625 241.261719 C 165.167969 240.632812 165.363281 239.984375 165.492188 239.320312 C 165.621094 238.652344 165.683594 237.976562 165.679688 237.296875 C 165.675781 236.617188 165.601562 235.945312 165.460938 235.277344 Z M 129.285156 223.84375 C 128.914062 223.914062 128.539062 223.941406 128.164062 223.9375 C 127.789062 223.929688 127.414062 223.886719 127.046875 223.808594 C 126.679688 223.726562 126.324219 223.613281 125.976562 223.460938 C 125.632812 223.3125 125.304688 223.128906 124.996094 222.914062 C 124.683594 222.699219 124.398438 222.457031 124.136719 222.1875 C 123.875 221.914062 123.644531 221.621094 123.441406 221.304688 C 123.234375 220.988281 123.066406 220.65625 122.925781 220.304688 C 122.789062 219.953125 122.6875 219.59375 122.621094 219.222656 C 122.550781 218.851562 122.523438 218.476562 122.527344 218.101562 C 122.535156 217.726562 122.578125 217.351562 122.660156 216.984375 C 122.738281 216.617188 122.855469 216.261719 123.003906 215.914062 C 123.15625 215.570312 123.335938 215.242188 123.550781 214.933594 C 123.765625 214.625 124.007812 214.335938 124.28125 214.078125 C 124.550781 213.816406 124.847656 213.582031 125.164062 213.378906 C 125.480469 213.175781 125.8125 213.003906 126.164062 212.867188 C 126.515625 212.730469 126.875 212.625 127.246094 212.558594 C 127.617188 212.492188 127.988281 212.464844 128.367188 212.46875 C 128.742188 212.476562 129.117188 212.519531 129.484375 212.601562 C 129.851562 212.679688 130.207031 212.796875 130.554688 212.945312 C 130.898438 213.097656 131.226562 213.28125 131.535156 213.496094 C 131.84375 213.710938 132.128906 213.953125 132.390625 214.222656 C 132.652344 214.496094 132.886719 214.789062 133.089844 215.105469 C 133.292969 215.421875 133.460938 215.757812 133.601562 216.105469 C 133.738281 216.457031 133.839844 216.820312 133.90625 217.1875 C 133.972656 217.558594 134.003906 217.933594 133.996094 218.308594 C 133.992188 218.683594 133.949219 219.058594 133.867188 219.425781 C 133.789062 219.792969 133.671875 220.148438 133.523438 220.492188 C 133.371094 220.839844 133.191406 221.167969 132.976562 221.476562 C 132.761719 221.785156 132.519531 222.070312 132.246094 222.332031 C 131.976562 222.59375 131.683594 222.824219 131.367188 223.027344 C 131.050781 223.230469 130.714844 223.402344 130.367188 223.539062 C 130.015625 223.675781 129.65625 223.777344 129.285156 223.84375 Z M 151.132812 215.359375 C 150.933594 215.316406 150.753906 215.242188 150.589844 215.128906 C 150.421875 215.015625 150.285156 214.875 150.175781 214.707031 C 150.066406 214.539062 149.992188 214.355469 149.953125 214.160156 C 149.917969 213.960938 149.917969 213.765625 149.960938 213.570312 C 150 213.371094 150.078125 213.191406 150.191406 213.023438 C 150.304688 212.859375 150.445312 212.722656 150.609375 212.609375 C 150.777344 212.5 150.960938 212.425781 151.160156 212.390625 C 151.355469 212.351562 151.550781 212.355469 151.75 212.394531 C 151.945312 212.433594 152.125 212.507812 152.292969 212.617188 C 152.460938 212.726562 152.597656 212.867188 152.707031 213.035156 C 152.816406 213.203125 152.890625 213.382812 152.929688 213.578125 C 152.964844 213.777344 152.960938 213.972656 152.917969 214.167969 C 152.878906 214.363281 152.800781 214.546875 152.691406 214.714844 C 152.578125 214.882812 152.4375 215.019531 152.269531 215.132812 C 152.105469 215.242188 151.921875 215.320312 151.722656 215.359375 C 151.527344 215.398438 151.328125 215.398438 151.132812 215.359375 Z M 156.496094 242.746094 C 155.75 242.878906 155.003906 242.867188 154.261719 242.707031 C 153.519531 242.546875 152.835938 242.25 152.210938 241.820312 C 151.582031 241.386719 151.066406 240.851562 150.65625 240.210938 C 150.242188 239.570312 149.972656 238.875 149.839844 238.125 C 149.769531 237.753906 149.738281 237.378906 149.742188 237.003906 C 149.746094 236.625 149.789062 236.253906 149.867188 235.882812 C 149.945312 235.511719 150.058594 235.15625 150.210938 234.808594 C 150.359375 234.460938 150.542969 234.132812 150.757812 233.824219 C 150.96875 233.511719 151.214844 233.226562 151.484375 232.964844 C 151.757812 232.699219 152.050781 232.46875 152.367188 232.261719 C 152.6875 232.058594 153.019531 231.886719 153.371094 231.75 C 153.722656 231.613281 154.085938 231.511719 154.457031 231.445312 C 155.207031 231.308594 155.953125 231.320312 156.695312 231.480469 C 157.4375 231.640625 158.125 231.9375 158.75 232.371094 C 159.371094 232.808594 159.886719 233.34375 160.292969 233.984375 C 160.703125 234.625 160.976562 235.316406 161.113281 236.066406 C 161.179688 236.4375 161.207031 236.808594 161.199219 237.1875 C 161.191406 237.5625 161.148438 237.933594 161.070312 238.300781 C 160.988281 238.671875 160.875 239.027344 160.722656 239.371094 C 160.574219 239.71875 160.390625 240.042969 160.175781 240.355469 C 159.964844 240.664062 159.722656 240.949219 159.453125 241.210938 C 159.179688 241.476562 158.890625 241.707031 158.574219 241.914062 C 158.257812 242.121094 157.925781 242.292969 157.574219 242.433594 C 157.226562 242.574219 156.867188 242.675781 156.496094 242.746094 Z M 156.496094 242.746094 " fill-opacity="1" fill-rule="nonzero"/><path fill="#ffffff" d="M 187.542969 287.089844 L 101.320312 237.3125 L 101.320312 137.757812 L 187.542969 87.984375 L 273.757812 137.757812 L 273.757812 237.3125 Z M 102.851562 236.429688 L 187.542969 285.320312 L 272.230469 236.429688 L 272.230469 138.640625 L 187.542969 89.753906 L 102.851562 138.640625 Z M 102.851562 236.429688 " fill-opacity="1" fill-rule="nonzero"/><path fill="#ffffff" d="M 221.648438 181.511719 L 224.09375 178.605469 L 225.253906 179.582031 L 222.808594 182.488281 Z M 221.648438 181.511719 " fill-opacity="1" fill-rule="nonzero"/><path fill="#ffffff" d="M 183.953125 229.730469 L 182.78125 228.746094 L 186.621094 224.191406 L 187.785156 225.179688 Z M 189.652344 222.960938 L 188.484375 221.980469 L 192.320312 217.429688 L 193.488281 218.414062 Z M 195.355469 216.199219 L 194.1875 215.214844 L 198.023438 210.664062 L 199.195312 211.652344 Z M 201.058594 209.433594 L 199.890625 208.453125 L 203.730469 203.898438 L 204.894531 204.886719 Z M 206.761719 202.667969 L 205.582031 201.6875 L 209.414062 197.136719 L 210.585938 198.117188 Z M 212.460938 195.90625 L 211.292969 194.925781 L 215.144531 190.371094 L 216.308594 191.351562 Z M 218.1875 189.140625 L 217.019531 188.152344 L 220.832031 183.625 L 222 184.605469 Z M 218.1875 189.140625 " fill-opacity="1" fill-rule="nonzero"/><path fill="#ffffff" d="M 179.53125 234.550781 C 179.207031 234.550781 178.976562 234.402344 178.839844 234.109375 C 178.703125 233.816406 178.738281 233.542969 178.949219 233.296875 L 180.917969 230.957031 L 182.085938 231.945312 L 181.183594 233.011719 L 182.582031 233.011719 L 182.582031 234.542969 L 179.539062 234.542969 Z M 179.53125 234.550781 " fill-opacity="1" fill-rule="nonzero"/><path fill="#ffffff" d="M 185.613281 234.519531 L 185.613281 232.988281 L 191.699219 232.957031 L 191.699219 234.488281 Z M 194.710938 234.488281 L 194.710938 232.960938 L 200.796875 232.925781 L 200.796875 234.453125 Z M 203.8125 234.441406 L 203.8125 232.910156 L 209.898438 232.875 L 209.898438 234.40625 Z M 212.90625 234.386719 L 212.90625 232.855469 L 218.992188 232.828125 L 218.992188 234.351562 Z M 222 234.335938 L 222 232.808594 L 228.089844 232.773438 L 228.089844 234.300781 Z M 222 234.335938 " fill-opacity="1" fill-rule="nonzero"/><path fill="#ffffff" d="M 231.097656 234.261719 L 231.097656 232.734375 L 233.390625 232.734375 L 233.390625 230.441406 L 234.917969 230.441406 L 234.917969 233.484375 C 234.917969 233.691406 234.84375 233.871094 234.695312 234.019531 C 234.550781 234.167969 234.371094 234.242188 234.160156 234.242188 Z M 231.097656 234.261719 " fill-opacity="1" fill-rule="nonzero"/><path fill="#ffffff" d="M 233.382812 222.75 L 234.910156 222.75 L 234.910156 228.113281 L 233.382812 228.113281 Z M 233.382812 222.75 " fill-opacity="1" fill-rule="nonzero"/><path fill="#ffffff" d="M 233.382812 216.621094 L 234.910156 216.621094 L 234.910156 220.441406 L 233.382812 220.441406 Z M 233.382812 216.621094 " fill-opacity="1" fill-rule="nonzero"/></svg>